<?xml version="1.0" encoding="utf-8"?>
<!-- Generator: Adobe Illustrator 21.0.2, SVG Export Plug-In . SVG Version: 6.00 Build 0)  -->
<svg version="1.1" id="Layer_1" xmlns="http://www.w3.org/2000/svg" xmlns:xlink="http://www.w3.org/1999/xlink" x="0px" y="0px"
	 viewBox="0 0 176.3 91.3" style="enable-background:new 0 0 176.3 91.3;" xml:space="preserve">
<style type="text/css">
	.rfc-logo { fill: #2A363B; }
	.st0{clip-path:url(#SVGID_2_);}
</style>
<g>
	<g>
		<defs>
			<rect id="SVGID_1_" x="-80.7" y="-30.4" width="334.1" height="193.7"/>
		</defs>
		<clipPath id="SVGID_2_">
			<use xlink:href="#SVGID_1_"  style="overflow:visible;"/>
		</clipPath>
		<g class="st0">
			<g>
				<path class="rfc-logo" d="M123.2,44.6c0,6.4,0,12.8,0,19.2c0,1.4-0.1,1.5-1.5,1.5c-6.1,0-12.2,0-18.3,0c-1.5,0-1.5,0-1.5-1.5c0-8.1,0-16.2,0-24.3
					c0-2.5,0.2-5.1,0.1-7.6c0-1.4,0-2.8,0-4.1c0-1.1,0.1-2.3,0.1-3.4c0-0.4,0.3-0.7,0.7-0.7c0.3,0,0.6,0,0.8,0c4.6,0,9.3,0,13.9,0
					c1.3,0,2.6-0.1,4,0.1c1.6,0.2,1.6,0.1,1.6,1.8C123.2,31.9,123.2,38.2,123.2,44.6L123.2,44.6z M105.5,62.3c1,0,1.9,0,2.9,0
					c1.3,0,1.3,0,1.3-1.3c0-4.9,0-9.9,0-14.8c0-0.3,0-0.7,0.5-0.9c0.5,1.7,0.7,3.4,1.1,5c0.4,1.7,0.6,3.4,1.5,5
					c1.3-3.2,1.7-6.7,2.6-10c0.3,0.1,0.4,0.2,0.4,0.4c0,1.7-0.1,3.3-0.1,5c0,3.4,0,6.9-0.1,10.3c0,0.2,0,0.3,0,0.5
					c0.1,0.5,0.3,0.7,0.8,0.7c1,0,2,0,3,0c0.4,0,0.6-0.2,0.6-0.7c0-2.2,0-4.4,0-6.6c0-8.9,0-17.9,0-26.8c0-0.1,0-0.2,0-0.4
					c0-0.9-0.1-1-0.9-1c-0.7,0-1.4,0.1-2.2,0s-1.2,0.3-1.3,1c-0.4,1.9-0.8,3.7-1.3,5.6c-0.4,1.9-0.7,3.8-1.3,5.6
					c-0.4,0.1-0.6-0.1-0.7-0.4c-0.4-2.4-1.1-4.6-1.5-7c-0.2-1.2-0.5-2.5-0.8-3.7c-0.1-0.6-0.4-1.1-1.1-1.1c-0.9,0-1.8,0-2.8,0
					c-0.6,0-0.8,0.3-0.8,0.9c0,0.3,0,0.6,0,1c0,10.2,0,20.3-0.1,30.5C105.3,60.2,105.3,61.2,105.5,62.3z"/>
				<path class="rfc-logo" d="M29.4,44.5c0,5.6,0,11.1,0,16.7c0,1,0,1.9,0,2.9c0,0.6-0.2,0.9-0.8,0.8c-3.8-0.2-7.5,0.4-11.3,0.1c-0.5,0-1,0.1-1.5,0.1
					c-1.2,0-1.5-0.3-1.5-1.5c-0.1-1.1,0-2.2,0-3.2c0-5.6,0-11.1,0-16.7c0-6.1,0-12.3,0-18.4c0-0.3,0-0.6,0-0.8c0.1-0.8,0.3-1,1.2-1
					c2.2,0,4.4,0.1,6.6,0c2-0.1,4,0,6.1,0c1.1,0,1.3,0.1,1.4,1.3c0,0.3,0,0.6,0,1C29.4,31.9,29.4,38.2,29.4,44.5L29.4,44.5z
					 M18.1,51.4c0,3.3,0,6.3,0,9.3c0,0.9,0,0.9,0.9,1c0.8,0,1.6,0,2.4,0c1.3,0,1.4,0,1.4-1.3c0-4.6,0-9.3,0-13.9c0-0.8,0-1.7,0-2.5
					s0.2-1,1-1c0.5,0,1,0,1.4,0c0.6,0,1-0.3,0.9-1c0-0.5,0-1,0-1.6c0-2,0.5-2.2-2.1-2.2c-1.1,0-1.2-0.1-1.2-1.3
					c0-1.6,0.1-3.2-0.1-4.8c-0.1-0.7,0.2-1,1-1c0.6,0,1.1-0.2,1.7-0.1c0.4,0.1,0.7-0.2,0.6-0.5c-0.1-0.9,0.3-1.7,0.1-2.6
					c-0.3-1.3-0.2-1.4-1.6-1.4c-1.7,0-3.3,0-5,0c-0.2,0-0.5,0-0.7,0.1c-0.7,0.1-1,0.4-1,1.2c0.1,1.2,0.1,2.5,0,3.7
					c0,3.5-0.1,7.1,0.1,10.6C18.2,45.2,18,48.4,18.1,51.4z"/>
				<path class="rfc-logo" d="M31.8,65c-0.2-2.5-0.3-5-0.3-7.5c0-3,0-5.9,0-8.9c0-8,0-15.9,0-23.9c0-1.1,0.2-1.3,1.3-1.3c5.4,0,10.8-0.1,16.2-0.1
					c1,0,1.1,0.1,1.1,1.2c0.3,9,0.2,18,0.2,26.9c0,4,0,7.9,0,11.9c0,1.5-0.2,1.6-1.7,1.6c-4.4,0-8.8,0-13.2,0
					C34.3,65.1,33.1,65.4,31.8,65z M48,61.8c0.1-0.9,0.2-1.6,0-2.3c-0.3-1.3-0.2-2.5-0.4-3.8c-0.3-2.2-0.6-4.4-1.2-6.5
					c-0.5-1.7-1.3-3.4-2.2-4.9c-0.4-0.6-0.3-1.1,0.2-1.6c0.8-0.8,1.4-1.8,1.8-2.8c1.1-2.9,1-5.9-0.3-8.7c-0.9-2-2.3-3.6-4.6-4.3
					c-2-0.6-4-0.3-5.9-0.4c-0.3,0-0.5,0.2-0.6,0.5s-0.1,0.6-0.1,1c0,2.6,0.1,5.2,0.1,7.8c0,1.8-0.1,3.7,0,5.5c0.1,3.6,0,7.1,0,10.7
					c0,3,0,5.9-0.1,8.9c0,0.7,0.3,0.9,0.9,0.9c0.8,0,1.7,0,2.5,0c1.1,0,1.3-0.2,1.3-1.4c-0.1-3.6,0.1-7.3-0.1-10.9
					c0-0.7,0.1-1.4,0.1-2.1c0-0.3,0.1-0.6,0.4-0.7s0.5,0.2,0.7,0.4c0.4,0.4,0.7,0.9,0.9,1.4c0.7,1.6,1,3.4,1.3,5.1
					c0.4,2.4,0.6,4.9,0.8,7.4c0,0.6,0.3,0.9,0.9,0.8C45.5,61.8,46.7,61.8,48,61.8z"/>
				<path class="rfc-logo" d="M65.9,55.7c-0.1-2.4-0.1-5.1-0.1-7.6c0-2.1,0-4.1,0-6.2c0.1-2.1-0.1-4.1-0.2-6.2c0-3.6,0-7.3,0-10.9
					c0-1,0.2-1.1,1.2-1.1c4,0,8.1-0.1,12.1-0.1c1.5,0,1.7,0.1,1.7,1.6c0,3.6-0.1,7.3,0.1,10.9c0.3,9.2,0.1,18.3,0.2,27.5
					c0,1.6-0.1,1.7-1.7,1.7c-4.1-0.1-8.1,0.2-12.2,0c-0.8,0-1-0.2-1.1-1c0-0.3,0-0.6,0-0.8C65.9,60.9,65.9,58.4,65.9,55.7z
					 M77.3,26.9c-2.4,0-4.8-0.3-7.1-0.2c-0.7,0-0.9,0.4-0.9,1c0,5.2,0,10.5,0.1,15.7c0.1,3.4,0.1,6.9,0.1,10.3c0,2.4,0,4.8,0,7.2
					c0,1,0.1,1.1,1.1,1.1c1.9,0,3.8,0,5.8,0c0.2,0,0.3,0,0.5-0.1c0.5-0.1,0.8-0.3,0.8-0.8c0-1,0-1.9,0-2.9c0-0.6-0.3-0.9-0.9-0.9
					c-0.5,0-1,0-1.6,0s-0.9-0.3-0.9-0.9c0-0.2,0-0.5,0-0.7c-0.1-2.5,0-5-0.1-7.6c-0.1-1.6-0.1-3.2,0.2-4.8c0.7-0.3,1.4-0.4,2.1-0.3
					c0.7,0,0.9-0.3,1-0.9c0.1-1,0-2,0-3c0-0.6-0.2-0.8-0.9-0.8s-1.5,0.1-2.2-0.2c-0.2-1.9-0.3-3.9-0.2-5.8c0-0.6,0.3-1,0.9-0.9
					c0.5,0,1,0,1.6,0c0.5,0,0.7-0.2,0.8-0.7C77.5,29.6,77.5,28.3,77.3,26.9z"/>
				<path class="rfc-logo" d="M161.9,65.2c-1,0.4-1.8,0.1-2.6,0.2c-4.8,0.2-9.5,0.2-14.3,0.2c-0.3,0-0.6,0-0.8,0c-0.6,0-0.9-0.3-0.9-0.9
					c0-0.2,0-0.5,0-0.7c0-12.8,0-25.6,0-38.4c0-0.2,0-0.4,0-0.6c0-0.9,0.2-1,1.1-1c5.5,0,11,0,16.5,0c1,0,1.1,0.1,1.1,1.2
					c0,8.7,0,17.5,0,26.2c0,4.2,0,8.4,0,12.6C161.9,64.3,161.9,64.7,161.9,65.2z M154.3,42.6c-0.3-0.1-0.4-0.3-0.4-0.5
					c-0.2-1.2-0.5-2.3-0.7-3.5c-0.7-3.5-1.4-7.1-2.2-10.6c-0.2-1.1-0.4-1.2-1.4-1.2c-0.5,0-1,0-1.4,0c-1.6,0-1.6,0-1.6,1.6
					c0,10.7,0,21.3,0,32c0,2.1-0.2,1.9,1.9,1.9c2.2,0,2.2,0,2.1-2.2c0-0.1,0-0.2,0-0.4c0-4.2,0-8.4,0.2-12.6c0-0.2-0.1-0.5,0.2-0.6
					c0.2,0,0.3,0.1,0.3,0.3c0.7,3.6,1.5,7.2,2.2,10.9c0.2,1.2,0.5,2.3,0.7,3.5c0.2,1,0.4,1.1,1.4,1.1c0.6,0,1.3,0,1.9,0
					c1.1,0,1.1-0.1,1.1-1.2c0-0.3,0-0.6,0-0.8c0-8.4,0-16.9,0-25.3c0-2.3,0-4.6,0-7c0-1-0.1-1.1-1.1-1.1c-0.6,0-1.2,0-1.8,0
					c-1.3,0-1.3,0-1.3,1.3c0,4.4,0,8.7,0,13.1C154.4,41.7,154.5,42.1,154.3,42.6z"/>
				<path class="rfc-logo" d="M140.9,24c0.2,2.7,0.3,5.4,0.3,8c0,10.6,0,21.2,0,31.8c0,0.2,0,0.5,0,0.7c0,0.7-0.3,0.9-1,0.9c-1.2,0-2.5,0-3.7,0
					c-3.2,0-6.4,0-9.6,0c-0.3,0-0.6,0-1,0c-0.5,0-0.7-0.3-0.7-0.8c-0.1-1-0.2-2.1-0.2-3.1c0-12,0-24,0-36c0-0.2,0-0.3,0-0.5
					c0-1.2,0.1-1.2,1.2-1.2c3,0,6.1,0,9.1,0c1.5,0,3,0,4.6,0C140.2,23.9,140.6,23.8,140.9,24z M135.2,27.1c-1.5-0.2-2.9-0.1-4.4-0.1
					c-0.3,0-0.7,0.1-0.7,0.5c0,0.5-0.2,1-0.3,1.5c-0.2,2.5-0.5,5.1-0.7,7.6c-0.2,2.9-0.5,5.9-0.8,8.8c-0.1,1.1-0.2,2.1-0.3,3.2
					c-0.2,1.8-0.4,3.6-0.6,5.5c-0.2,1.8-0.3,3.7-0.6,5.5c-0.1,0.5-0.2,1-0.2,1.5c0,1,0.1,1.1,1,1.1c0.8,0,1.6,0,2.4,0c1,0,1-0.1,1-1
					c0-1.4,0.3-2.9,0.3-4.3c0-0.9,0.3-1.1,1.2-1.1c0.2,0,0.5,0,0.7,0c0.7-0.1,1,0.2,1.1,0.9c0.1,1,0.2,1.9,0.2,2.9
					c0,0.7,0,1.4,0.2,2c0.1,0.5,0.4,0.7,0.8,0.7c0.8,0,1.7,0,2.5,0c1.1,0,1.3-0.1,1.1-1.2c-0.1-1-0.3-2-0.4-2.9
					c-0.3-2.6-0.5-5.2-0.8-7.9c-0.3-3-0.8-6.1-1.2-9.1c-0.4-3.8-0.8-7.5-1.3-11.3C135.7,29,135.7,28.1,135.2,27.1z"/>
				<path class="rfc-logo" d="M82.7,44.3c0-6.4,0-12.8,0-19.2c0-1.4,0-1.4,1.4-1.4c4.9,0,9.8,0,14.7,0c1.1,0,1.1,0,1.2,1.1c0.4,6.2,0.2,12.4,0.2,18.6
					c0,6.7,0,13.5,0,20.2c0,1.9,0,1.9-1.8,1.9c-4.6,0-9.3,0-13.9,0c-1.5,0-1.6-0.2-1.6-1.7C82.7,57.2,82.7,50.8,82.7,44.3L82.7,44.3
					z M85.7,41.1L85.7,41.1c0,2.6,0,5.2,0,7.8c0,2.5,0.1,5,0,7.5c0,1.6-0.2,3.3,0.1,4.9c0.1,0.4,0.1,0.7,0.6,0.7
					c2.1,0.1,4.2,0.1,6.1-1.2c2.1-1.5,3.3-3.6,4.1-6c0.6-1.9,0.9-3.8,1.1-5.7c0.3-2.6,0.4-5.2,0.2-7.8c-0.2-2.4-0.6-4.7-1.3-7
					c-0.6-2.1-1.6-4-3.2-5.5c-1.9-1.7-4-2.1-6.4-2.1c-1.3,0-1.3,0-1.3,1.3C85.7,32.5,85.7,36.8,85.7,41.1z"/>
				<path class="rfc-logo" d="M52.4,23.5c1.3,0,2.5,0,3.6,0c1.9,0.1,3.7,0,5.6-0.1c0.1,0,0.2,0,0.4,0c1.5,0,1.6,0.2,1.6,1.6
					c0.4,12.7,0.1,25.4,0.2,38.1c0,2.3,0,2-2,2c-2.6,0-5.1,0-7.7,0c-1.7,0-1.7,0-1.7-1.6c0-12,0-23.9,0-35.9
					C52.4,26.3,52.4,25.1,52.4,23.5z M60.2,61.9c0.2-0.6,0.5-1.1,0.4-1.7c-0.3-1.3-0.1-2.7-0.1-4c-0.1-3.5,0-7.1,0-10.7
					c0-2.2,0-4.5,0.1-6.7c0-2.5,0-4.9-0.1-7.4c0-1.5,0-2.9,0-4.4c-1.1-0.3-2-0.4-3-0.4c-1.4,0-1.5,0.1-1.5,1.5c0,5.9,0,11.8,0,17.8
					c0,2.8,0,5.7,0,8.5c0,2.1,0,4.2,0,6.4c0,1,0.1,1.1,1.1,1.1C58.1,61.9,59.1,61.9,60.2,61.9z"/>
				<path class="rfc-logo" d="M159.5,19c0.7,0,0.6-0.8,1.2-0.8c0.3,0.2,0.2,0.4,0,0.6c-0.2,0.3-0.5,0.5-0.7,0.8c-0.4,0.3-0.7,0.9-1.3,0.6
					c-0.5-0.2-0.1-0.8-0.3-1.3c-0.5,0.2-0.8,0.6-1.1,1c-0.4,0.4-0.9,0.6-1.4,0.4c-0.6-0.3-0.6-0.8-0.5-1.3c0.1-2,2-4.1,3.9-4.4
					c0.2,0,0.5,0,0.7-0.2c0.5-0.4,0.4-1.1,0.6-1.7c0.4-0.9,0.3-0.9-0.1-1.6c0.3-0.5,0.8-0.5,1.2-0.3c0.5,0.2,0.3,0.8,0.2,1.2
					c-0.6,2-1.3,3.9-2,5.9C159.8,18.2,159.7,18.6,159.5,19z M159.5,15.2c-1.6,0.1-2.2,1.1-2.7,2.2c-0.2,0.5-0.8,1.1,0,1.7
					C158.2,18.2,159.3,17.1,159.5,15.2z"/>
				<path class="rfc-logo" d="M86.8,11c0.1,1.8-1.5,3.2-1.5,5c0.3-0.3,0.7-0.6,1-0.9c0.4-0.5,1-0.5,1.5-0.3c0.6,0.2,0.5,0.7,0.5,1.2
					c0.2,1.6-0.7,2.8-1.7,3.9c-0.3,0.4-0.8,0.5-1.3,0.4c-0.3,0-0.5-0.3-0.5-0.6s0.3-0.6,0.6-0.4c0.8,0.3,1.1-0.2,1.3-0.8
					s0.4-1.3,0.7-1.9c0.1-0.4,0.1-0.7-0.1-1.1c-0.9,0.1-1.4,0.7-1.8,1.3c-0.6,0.8-1.1,1.7-1.7,2.6c-0.1,0.2-0.2,0.3-0.3,0.5
					S83.2,20.1,83,20c-0.2-0.1-0.3-0.3-0.2-0.5c0.1-0.4,0.3-0.8,0.4-1.2c0.7-1.9,1.5-3.8,2.2-5.8c0.2-0.5,0.1-0.8-0.1-1.3
					C85.8,11.2,86.2,10.8,86.8,11z"/>
				<path class="rfc-logo" d="M157.7,75.9c0.3,0.6,1,0.8,1.4,1.2c0.5,0.5,0.8,1,0.6,1.7c-0.1,0.7-0.8,0.9-1.4,1c-0.8,0.2-1.7,0.2-2.6-0.3
					c-0.9-0.5-1.1-1.5-0.3-2.3c0.4-0.4,1.1-0.5,0.8-1.5c-0.1-0.3,0.5-0.9,0.3-1.6c-0.2-0.9,0.2-1.7,0.9-2.3c0.6-0.5,1.3-0.7,2.1-0.3
					c0.5,0.3,1.1,0.3,1.6,0.7c-0.9,0.3-1,1-1.3,1.7c-0.2,0.6-0.7,1-1.4,1.3C158.3,75.6,157.8,75.6,157.7,75.9z M158.9,78.7
					c-0.4-0.5-0.7-1-1.2-1.2c-0.6-0.3-1.3,0-1.6,0.6c-0.2,0.4,0.1,1.1,0.7,1.3C157.5,79.7,158.3,79.5,158.9,78.7z M157.7,75
					c1.5-0.5,2-1.6,1.4-2.8C157.7,72.9,157.4,73.5,157.7,75z"/>
				<path class="rfc-logo" d="M139.3,75.6c-0.9,1.3-0.9,1.3-2.2,1.4c-0.2-1.8,1.3-3,1.5-4.7c-0.7,0-1,0.5-1.3,0.9c-0.6,1-1.4,2-1.8,3.1
					c-0.2,0.4-0.4,0.8-1,0.7c0.1-1.5,0.9-2.8,1.2-4.3c-0.4-0.1-0.5,0.4-0.9,0.4c-0.3-0.5,0.2-0.8,0.4-1.1c0.3-0.4,0.7-0.7,1.2-0.7
					c0.7,0,0.4,0.7,0.6,1.1c0.4-0.3,0.8-0.6,1.3-0.9c0.4-0.2,0.8-0.3,1.1,0s0.4,0.6,0.2,1c-0.3,0.7-0.5,1.4-0.9,2.1
					C138.4,75.3,138.6,75.6,139.3,75.6z"/>
				<path class="rfc-logo" d="M36.6,74.8c-0.5,0.3-1,0.7-1.5,1C34.8,76,34.4,76.4,34,76c-0.3-0.4-0.5-0.8-0.3-1.3c0.3-0.9,0.7-1.7,1.4-2.3
					c0.7-0.7,1.6-1.4,2.7-1.4c0.6,0,1-0.6,1.6-0.5c0.3,0.9-0.3,1.4-0.6,2.1c-0.3,0.6-0.6,1.3-0.9,2c0.6,0.1,0.8-0.5,1.2-0.5
					c0.2,0.3,0.1,0.6-0.2,0.8c-0.4,0.3-0.8,0.7-1.2,1c-0.3,0.2-0.6,0.5-1,0.2C36.4,75.7,36.5,75.3,36.6,74.8z M37.9,71.6
					c-1.4,0.4-2.3,1.3-3,2.5c-0.1,0.2-0.2,0.3,0,0.5s0.4,0.1,0.6,0c0.9-0.5,1.7-1.1,2.2-1.9C37.9,72.4,38.1,72.1,37.9,71.6z"/>
				<path class="rfc-logo" d="M110.5,19.1c-0.6,0.4-1.1,0.8-1.7,1.1c-0.3,0.2-0.6,0.3-1,0c-0.3-0.2-0.4-0.6-0.3-0.9c0.2-1.6,1.3-2.6,2.5-3.5
					c1-0.7,2.2-0.7,3.4-1.4c0.1,1.8-1.3,2.9-1.4,4.4c0.5,0.1,0.5-0.5,0.9-0.5c0.3,0.1,0.3,0.3,0.1,0.5c-0.4,0.5-0.9,0.9-1.4,1.3
					c-0.2,0.2-0.5,0.4-0.9,0.2c-0.3-0.2-0.3-0.5-0.3-0.8C110.4,19.3,110.4,19.2,110.5,19.1z M111.9,16.1c-0.2-0.1-0.2-0.2-0.3-0.2
					c-1-0.1-3.1,1.7-3.1,2.6c0,0.5,0.3,0.6,0.7,0.4C110.5,18.3,111.3,17.3,111.9,16.1z"/>
				<path class="rfc-logo" d="M78.2,74.9c-0.2,1-1.3,1.9-2.1,1.8c-0.8-0.2-1.1-1.1-0.9-2.1c0.3-1.3,0.9-2.4,2.1-3.2c0.6-0.4,1.2-0.4,1.5,0
					c0.4,0.5,0.6,1,0.2,1.5c-0.4,0.5-0.8,1.1-1.6,1.2c-0.3,0-0.5,0.2-0.8,0.3c-0.4,0.3-0.4,0.7-0.2,1.1c0.2,0.3,0.5,0.3,0.8,0.1
					C77.5,75.3,77.8,75.1,78.2,74.9z M76.7,73.4c1.5-0.6,1.7-0.9,1.5-1.8C77.3,71.8,77,72.5,76.7,73.4z"/>
				<path class="rfc-logo" d="M95.6,76.8c-0.4-1.4,0.4-2.5,0.6-3.8c-0.4-0.1-0.5,0.4-0.8,0.4c-0.3-0.3-0.1-0.6,0.1-0.8c0.5-0.4,0.6-1.1,1.3-1.3
					c0.3-0.1,0.6,0.1,0.6,0.4c0.1,0.3,0.1,0.7-0.2,1.3c0.6-0.6,0.8-1.2,1.3-1.5c0.3-0.2,0.6-0.3,0.9-0.1c0.3,0.3,0.3,0.7,0.2,1.1
					s-0.4,0.4-0.7,0.2c-0.5-0.3-0.7,0.1-0.9,0.4c-0.5,0.7-0.9,1.4-1.3,2.2C96.5,75.8,96.2,76.4,95.6,76.8z"/>
				<path class="rfc-logo" d="M133.6,16.2c-0.4,0-0.4,0.7-1,0.4c0.2-0.9,0.8-1.5,1.5-1.9c0.3-0.2,0.6,0,0.6,0.3c0,0.4,0,0.8,0.2,1.1
					c0.4-0.5,0.6-1.1,1.2-1.4c0.2-0.1,0.5-0.3,0.8-0.1c0.4,0.3,0.3,0.7,0.2,1.1c-0.1,0.3-0.3,0.5-0.6,0.3c-0.5-0.2-0.8,0.1-1.1,0.5
					c-0.6,0.8-0.9,1.8-1.4,2.6c-0.2,0.4-0.3,0.9-1.1,1C132.7,18.8,133.5,17.6,133.6,16.2z"/>
				<path class="rfc-logo" d="M57.5,74.7c0.4,0,0.6-0.3,0.8-0.5c0.3,0.1,0.3,0.4,0.2,0.5c-0.4,0.6-0.9,1.1-1.6,1.4c-0.3,0.1-0.5,0.3-0.8,0.1
					c-0.2-0.2-0.3-0.5-0.1-0.9c0.4-0.8,0.6-1.6,1-2.4c0.3-0.7,0.5-1.3-0.1-2c0.6-0.2,1.2-0.3,1.4-1c0-0.2,0.3-0.4,0.6-0.3
					s0.4,0.3,0.4,0.6c0,0.1-0.1,0.3-0.1,0.3c1,0.7,0.6,0.9-0.3,1.2c-0.3,0.1-0.4,0.4-0.5,0.6C58,73.1,57.7,73.8,57.5,74.7z"/>
				<path class="rfc-logo" d="M15,16.2c0.1-1,0.8-1.7,1.8-1.9c0.4,0.5,0,1.2,0.2,1.8c0.3-0.6,0.7-1.1,1.2-1.5c0.3-0.3,0.7-0.4,1-0.1
					c0.3,0.2,0.2,0.6,0.2,0.9c0,0.3-0.2,0.6-0.6,0.4c-0.6-0.3-0.9,0.1-1.1,0.5c-0.6,1-1.2,2-1.7,3c-0.2,0.3-0.2,0.7-0.7,0.5
					s-0.3-0.6-0.2-0.9c0.3-1,0.7-1.9,0.9-2.9C15.4,15.7,15.5,16.3,15,16.2z"/>
				<path class="rfc-logo" d="M116.4,72.7c-0.3-0.1-0.4,0.3-0.6,0.2c0-1,0.7-1.5,2.1-1.8c0.4,1.6-1,2.8-1,4.3c0.3,0.3,0.5-0.3,0.7,0
					c0.1,0.1,0.1,0.3,0.1,0.3c-0.4,0.4-0.8,0.8-1.2,1.1c-0.2,0.2-0.5,0.4-0.9,0.2c-0.4-0.3-0.4-0.7-0.2-1.1c0.3-0.6,0.5-1.2,0.8-1.8
					C116.2,73.6,116.5,73.2,116.4,72.7z"/>
				<path class="rfc-logo" d="M39.2,15.8c-0.4-0.3-0.6,0.2-0.9-0.1c0.3-0.9,0.9-1.5,2-1.6c0.6,1.7-1,2.8-1,4.3c0.3,0.3,0.6-0.3,0.9,0.2
					c-0.3,0.6-0.9,1-1.4,1.3c-0.3,0.2-0.6,0.3-0.9,0s-0.3-0.6-0.1-0.9C38.4,18,38.6,16.8,39.2,15.8z"/>
				<path class="rfc-logo" d="M16.6,74.5c-0.3,0.5-0.7,0.9-1.2,1.1c-0.7,0.4-1.3,0.1-1.5-0.7c-0.2-1.5,1-3.9,2.4-4.5c0.5-0.2,0.9-0.2,1.4-0.1
					s0.6,0.4,0.5,0.7c-0.1,0.3-0.5,0.4-0.8,0.3s-0.5-0.6-0.9-0.3c-0.4,0.2-0.5,0.6-0.7,0.9c-0.3,0.7-0.8,1.2-0.8,2s0.2,1,0.9,0.7
					C16.1,74.4,16.3,74.3,16.6,74.5z"/>
				<path class="rfc-logo" d="M62.7,15.1c-0.8,0.7-1.2,1.7-1.6,2.8c-0.1,0.4-0.1,0.7,0.1,1c0.3,0.3,0.6,0,0.9-0.1c0.1,0,0.2-0.1,0.3-0.1
					c-0.1,0.8-0.7,1.5-1.5,1.4c-0.4,0-0.8-0.2-0.9-0.7c-0.4-1.5,0.9-4.1,2.3-4.8c0.4-0.2,0.8-0.2,1.3-0.1c0.4,0,0.7,0.3,0.6,0.7
					c-0.1,0.4-0.5,0.3-0.8,0.3C63.2,15.5,63.1,15.1,62.7,15.1z"/>
				<path class="rfc-logo" d="M117.4,68.1c0.4,0,0.5,0.3,0.5,0.6c0,0.3-0.2,0.6-0.5,0.5c-0.4,0-0.6-0.3-0.6-0.7C116.9,68.3,117.1,68.1,117.4,68.1z"/>
				<path class="rfc-logo" d="M40,12.3c-0.3-0.1-0.6-0.3-0.6-0.7s0.3-0.5,0.7-0.5c0.4,0,0.4,0.3,0.4,0.6C40.5,12.1,40.3,12.2,40,12.3z"/>
				<path class="rfc-logo" d="M39.4,36.5c0-1.3,0-2.6,0-3.8c0-0.3,0-0.7,0.4-0.8c0.3-0.1,0.6,0.1,0.9,0.3c0.7,0.6,1.1,1.5,1.2,2.3
					c0.2,1.7,0.4,3.4-0.3,5c-0.3,0.6-0.6,1-1,1.4c-0.2,0.2-0.4,0.5-0.7,0.3c-0.3-0.1-0.3-0.4-0.3-0.7c0-1.1,0-2.2,0-3.2
					C39.4,37,39.4,36.8,39.4,36.5z"/>
				<path class="rfc-logo" d="M133,33.8c0.1,2.2,0.5,4.3,0.6,6.4c0.1,3.3,0.4,6.5,0.6,9.8c0.1,1.1-0.3,1.6-1.4,1.6c-0.7,0-1.1-0.3-1.1-1
					c0-0.9-0.1-1.8,0.1-2.8c0-0.2,0.1-0.4,0.1-0.6c-0.1-2.3,0.3-4.5,0.3-6.8c-0.1-1.9,0.3-3.8,0.2-5.8C132.4,34.3,132.5,34,133,33.8
					z"/>
				<path class="rfc-logo" d="M90.5,33.1c0.5-0.2,0.7,0.1,0.9,0.4c0.7,1.1,1,2.3,1.2,3.6c0.6,2.6,0.6,5.2,0.6,7.7c0,3,0.1,6.1-1,9
					c-0.2,0.6-0.5,1.1-0.8,1.6c-0.1,0.2-0.3,0.5-0.6,0.4c-0.4-0.1-0.4-0.4-0.4-0.8c0-1,0-1.9,0-2.9c0-6,0-12,0-17.9
					C90.4,33.9,90.3,33.5,90.5,33.1z"/>
			</g>
		</g>
	</g>
</g>
</svg>
